<svg width="157" height="161" viewBox="0 0 157 161" fill="none" xmlns="http://www.w3.org/2000/svg">
<g filter="url(#filter0_d_76_626)">
<rect x="2" y="1.09558" width="149" height="149" rx="30" fill="#A114E3"/>
<circle cx="78" cy="75" r="50" fill="#723B9D"/>
<g clip-path="url(#clip0_76_626)">
<path d="M106.667 53.6667H91.4582L89.2498 48C88.9477 47.217 88.4161 46.5434 87.7246 46.0676C87.0332 45.5918 86.2142 45.3359 85.3748 45.3334H69.6248C68.7819 45.3317 67.9584 45.5856 67.2628 46.0617C66.5672 46.5378 66.0324 47.2137 65.729 48L63.5415 53.6667H48.3332C47.2281 53.6667 46.1683 54.1057 45.3869 54.8871C44.6055 55.6685 44.1665 56.7283 44.1665 57.8334V99.5C44.1665 100.605 44.6055 101.665 45.3869 102.446C46.1683 103.228 47.2281 103.667 48.3332 103.667H106.667C107.772 103.667 108.831 103.228 109.613 102.446C110.394 101.665 110.833 100.605 110.833 99.5V57.8334C110.833 56.7283 110.394 55.6685 109.613 54.8871C108.831 54.1057 107.772 53.6667 106.667 53.6667ZM52.854 65.3959C52.412 65.3959 51.9881 65.2203 51.6755 64.9077C51.3629 64.5952 51.1873 64.1712 51.1873 63.7292C51.1873 63.2872 51.3629 62.8633 51.6755 62.5507C51.9881 62.2381 52.412 62.0625 52.854 62.0625H57.854C58.296 62.0625 58.72 62.2381 59.0325 62.5507C59.3451 62.8633 59.5207 63.2872 59.5207 63.7292C59.5207 64.1712 59.3451 64.5952 59.0325 64.9077C58.72 65.2203 58.296 65.3959 57.854 65.3959H52.854ZM77.4998 95.3334C73.7914 95.3334 70.1663 94.2337 67.0829 92.1734C63.9995 90.1132 61.5962 87.1848 60.1771 83.7587C58.758 80.3326 58.3866 76.5626 59.1101 72.9254C59.8336 69.2883 61.6193 65.9474 64.2416 63.3251C66.8638 60.7029 70.2047 58.9171 73.8419 58.1937C77.479 57.4702 81.249 57.8415 84.6752 59.2606C88.1013 60.6798 91.0296 63.083 93.0899 66.1664C95.1502 69.2499 96.2498 72.875 96.2498 76.5834C96.2498 81.5562 94.2744 86.3253 90.7581 89.8416C87.2418 93.3579 82.4726 95.3334 77.4998 95.3334Z" fill="#D1B9D9"/>
<path d="M63.146 76.7084C63.1502 79.5193 63.9586 82.2704 65.4759 84.6367C66.9931 87.003 69.1558 88.8857 71.7085 90.0625L73.9793 86.4375C72.5961 85.8489 71.3567 84.9679 70.3462 83.855C69.3357 82.742 68.5781 81.4236 68.1253 79.9901C67.6725 78.5567 67.5354 77.0423 67.7233 75.5508C67.9111 74.0594 68.4196 72.6263 69.2137 71.3499C70.0078 70.0735 71.0688 68.9842 72.3237 68.1566C73.5787 67.3291 74.9978 66.7829 76.4838 66.5557C77.9698 66.3285 79.4873 66.4256 80.9322 66.8403C82.3771 67.2551 83.7151 67.9776 84.8543 68.9584L87.1252 65.2917C84.9674 63.5398 82.3574 62.4352 79.5976 62.1058C76.8378 61.7763 74.0411 62.2356 71.5316 63.4304C69.0221 64.6252 66.9025 66.5066 65.4184 68.8566C63.9343 71.2066 63.1464 73.929 63.146 76.7084Z" fill="#D1B9D9"/>
</g>
</g>
<defs>
<filter id="filter0_d_76_626" x="0" y="0" width="157" height="160.096" filterUnits="userSpaceOnUse" color-interpolation-filters="sRGB">
<feFlood flood-opacity="0" result="BackgroundImageFix"/>
<feColorMatrix in="SourceAlpha" type="matrix" values="0 0 0 0 0 0 0 0 0 0 0 0 0 0 0 0 0 0 127 0" result="hardAlpha"/>
<feOffset dx="2" dy="6"/>
<feGaussianBlur stdDeviation="2"/>
<feComposite in2="hardAlpha" operator="out"/>
<feColorMatrix type="matrix" values="0 0 0 0 0 0 0 0 0 0 0 0 0 0 0 0 0 0 0.25 0"/>
<feBlend mode="normal" in2="BackgroundImageFix" result="effect1_dropShadow_76_626"/>
<feBlend mode="normal" in="SourceGraphic" in2="effect1_dropShadow_76_626" result="shape"/>
</filter>
<clipPath id="clip0_76_626">
<rect width="75" height="75" fill="white" transform="translate(40 37)"/>
</clipPath>
</defs>
</svg>
