<svg width="159" height="161" viewBox="0 0 159 161" fill="none" xmlns="http://www.w3.org/2000/svg">
<g filter="url(#filter0_d_76_621)">
<rect x="2" y="1.09558" width="151" height="149" rx="30" fill="#A114E3"/>
<circle cx="78" cy="75" r="50" fill="#723B9D"/>
<path d="M97.5 46H58.5C56.8431 46 55.5 47.3431 55.5 49V103C55.5 104.657 56.8431 106 58.5 106H97.5C99.1569 106 100.5 104.657 100.5 103V49C100.5 47.3431 99.1569 46 97.5 46Z" stroke="#D1B9D9" stroke-width="4"/>
<path d="M78 95.5C82.9706 95.5 87 91.4706 87 86.5C87 81.5294 82.9706 77.5 78 77.5C73.0294 77.5 69 81.5294 69 86.5C69 91.4706 73.0294 95.5 78 95.5Z" stroke="#D1B9D9" stroke-width="4"/>
<path d="M69 58H73.5M69 67H73.5M82.5 67H87" stroke="#D1B9D9" stroke-width="4" stroke-linecap="round" stroke-linejoin="round"/>
</g>
<defs>
<filter id="filter0_d_76_621" x="0" y="0" width="159" height="160.096" filterUnits="userSpaceOnUse" color-interpolation-filters="sRGB">
<feFlood flood-opacity="0" result="BackgroundImageFix"/>
<feColorMatrix in="SourceAlpha" type="matrix" values="0 0 0 0 0 0 0 0 0 0 0 0 0 0 0 0 0 0 127 0" result="hardAlpha"/>
<feOffset dx="2" dy="6"/>
<feGaussianBlur stdDeviation="2"/>
<feComposite in2="hardAlpha" operator="out"/>
<feColorMatrix type="matrix" values="0 0 0 0 0 0 0 0 0 0 0 0 0 0 0 0 0 0 0.25 0"/>
<feBlend mode="normal" in2="BackgroundImageFix" result="effect1_dropShadow_76_621"/>
<feBlend mode="normal" in="SourceGraphic" in2="effect1_dropShadow_76_621" result="shape"/>
</filter>
</defs>
</svg>
