<svg width="16" height="16" viewBox="0 0 16 16" fill="none" xmlns="http://www.w3.org/2000/svg">
<path d="M8 1.5C5.637 1.5 4 3.19 4 5.25C4 6.234 4.424 6.875 4.984 7.554L5.198 7.807C5.421 8.071 5.668 8.363 5.871 8.655C6.155 9.066 6.408 9.551 6.492 10.145C6.51202 10.338 6.45649 10.5312 6.33707 10.6841C6.21766 10.837 6.04365 10.9376 5.85158 10.9649C5.65951 10.9922 5.46434 10.9441 5.30704 10.8305C5.14974 10.717 5.04256 10.5469 5.008 10.356C4.968 10.074 4.845 9.809 4.638 9.509C4.4684 9.27373 4.28752 9.0468 4.096 8.829L3.828 8.509C3.201 7.75 2.5 6.766 2.5 5.25C2.5 2.31 4.863 0 8 0C11.137 0 13.5 2.31 13.5 5.25C13.5 6.766 12.799 7.75 12.172 8.509C12.0773 8.62367 11.988 8.73 11.904 8.828C11.697 9.073 11.521 9.281 11.363 9.509C11.155 9.809 11.033 10.074 10.993 10.356C10.9561 10.545 10.8481 10.7126 10.6911 10.8242C10.5342 10.9358 10.3404 10.9829 10.1498 10.9557C9.95913 10.9284 9.78623 10.829 9.6668 10.678C9.54736 10.5269 9.49052 10.3358 9.508 10.144C9.592 9.551 9.845 9.066 10.129 8.655C10.332 8.363 10.579 8.071 10.802 7.807L11.015 7.554C11.576 6.875 12 6.234 12 5.25C12 3.19 10.363 1.5 8 1.5ZM5.75 12H10.25C10.4489 12 10.6397 12.079 10.7803 12.2197C10.921 12.3603 11 12.5511 11 12.75C11 12.9489 10.921 13.1397 10.7803 13.2803C10.6397 13.421 10.4489 13.5 10.25 13.5H5.75C5.55109 13.5 5.36032 13.421 5.21967 13.2803C5.07902 13.1397 5 12.9489 5 12.75C5 12.5511 5.07902 12.3603 5.21967 12.2197C5.36032 12.079 5.55109 12 5.75 12ZM6 15.25C6 15.0511 6.07902 14.8603 6.21967 14.7197C6.36032 14.579 6.55109 14.5 6.75 14.5H9.25C9.44891 14.5 9.63968 14.579 9.78033 14.7197C9.92098 14.8603 10 15.0511 10 15.25C10 15.4489 9.92098 15.6397 9.78033 15.7803C9.63968 15.921 9.44891 16 9.25 16H6.75C6.55109 16 6.36032 15.921 6.21967 15.7803C6.07902 15.6397 6 15.4489 6 15.25Z" fill="#6A6A6A"/>
</svg>
