<svg width="159" height="161" viewBox="0 0 159 161" fill="none" xmlns="http://www.w3.org/2000/svg">
<g filter="url(#filter0_d_76_616)">
<rect x="2" y="1.09558" width="151" height="149" rx="30" fill="#A114E3"/>
<circle cx="78" cy="75" r="50" fill="#723B9D"/>
<path d="M45.9331 52.5667C45.9331 51.5854 46.3229 50.6443 47.0168 49.9504C47.7107 49.2565 48.6518 48.8667 49.6331 48.8667H55.1288C55.5728 48.8667 56.0168 48.9456 56.4263 49.1035L73.1306 55.3688C73.8359 55.6329 74.4439 56.106 74.8732 56.7249C75.3025 57.3437 75.5327 58.0789 75.5331 58.832V88.2347C75.5327 88.9879 75.3025 89.723 74.8732 90.3419C74.4439 90.9607 73.8359 91.4338 73.1306 91.6979L55.7998 98.2V99.4334C55.7998 100.415 55.41 101.356 54.7161 102.05C54.0222 102.744 53.0811 103.133 52.0998 103.133H49.6331C48.6518 103.133 47.7107 102.744 47.0168 102.05C46.3229 101.356 45.9331 100.415 45.9331 99.4334V52.5667ZM60.7331 80.8643V56.839C60.7331 56.5881 60.6566 56.3432 60.5138 56.1369C60.371 55.9307 60.1687 55.7729 59.9339 55.6846L57.4672 54.762C57.2806 54.6919 57.0798 54.668 56.8819 54.6924C56.684 54.7169 56.495 54.7889 56.3311 54.9024C56.1672 55.0159 56.0332 55.1674 55.9406 55.344C55.8481 55.5206 55.7998 55.7171 55.7998 55.9164V81.6882C55.7998 82.5268 56.6236 83.1238 57.4278 82.8574L59.8944 82.0384C60.1398 81.9556 60.3529 81.7976 60.5034 81.5868C60.6539 81.3761 60.7343 81.1233 60.7331 80.8643ZM65.6664 59.6214V78.4026C65.6655 78.5989 65.7115 78.7926 65.8005 78.9675C65.8896 79.1425 66.0191 79.2937 66.1783 79.4085C66.3375 79.5234 66.5219 79.5985 66.716 79.6278C66.9101 79.657 67.1084 79.6395 67.2944 79.5767L69.7611 78.7528C70.0065 78.67 70.2195 78.512 70.3701 78.3012C70.5206 78.0905 70.601 77.8377 70.5998 77.5787V60.539C70.5998 60.2881 70.5233 60.0432 70.3805 59.8369C70.2377 59.6307 70.0354 59.4729 69.8006 59.3846L67.3339 58.462C67.1473 58.3919 66.9464 58.368 66.7486 58.3924C66.5507 58.4169 66.3617 58.4889 66.1977 58.6024C66.0338 58.7159 65.8998 58.8674 65.8073 59.044C65.7148 59.2206 65.6664 59.422 65.6664 59.6214ZM110.066 52.5667C110.066 51.5854 109.677 50.6443 108.983 49.9504C108.289 49.2565 107.348 48.8667 106.366 48.8667H100.871C100.428 48.8673 99.9881 48.9475 99.5732 49.1035L82.869 55.3688C82.1636 55.6329 81.5557 56.106 81.1264 56.7249C80.697 57.3437 80.4668 58.0789 80.4664 58.832V88.2347C80.4668 88.9879 80.697 89.723 81.1264 90.3419C81.5557 90.9607 82.1636 91.4338 82.869 91.6979L100.2 98.2V99.4334C100.2 101.476 101.857 103.133 103.9 103.133H106.366C107.348 103.133 108.289 102.744 108.983 102.05C109.677 101.356 110.066 100.415 110.066 99.4334V52.5667ZM96.1051 82.0384C95.8597 81.9556 95.6467 81.7976 95.4962 81.5868C95.3456 81.3761 95.2653 81.1233 95.2664 80.8643V56.839C95.2664 56.5881 95.3429 56.3432 95.4857 56.1369C95.6285 55.9307 95.8308 55.7729 96.0656 55.6846L98.5323 54.762C98.7189 54.6919 98.9198 54.668 99.1177 54.6924C99.3155 54.7169 99.5045 54.7889 99.6685 54.9024C99.8324 55.0159 99.9664 55.1674 100.059 55.344C100.151 55.5206 100.2 55.7171 100.2 55.9164V81.6882C100.2 81.8841 100.153 82.0772 100.064 82.2515C99.9746 82.4258 99.845 82.5764 99.6859 82.6906C99.5268 82.8049 99.3427 82.8796 99.149 82.9086C98.9552 82.9376 98.7574 82.9201 98.5718 82.8574L96.1051 82.0384ZM90.3331 59.6164V78.3976C90.334 78.594 90.288 78.7876 90.199 78.9626C90.11 79.1376 89.9805 79.2888 89.8212 79.4036C89.662 79.5184 89.4777 79.5936 89.2835 79.6229C89.0894 79.6521 88.8911 79.6346 88.7051 79.5718L86.2384 78.7479C85.9939 78.6653 85.7814 78.508 85.6309 78.2983C85.4805 78.0885 85.3996 77.8368 85.3998 77.5787V60.539C85.3998 60.2881 85.4763 60.0432 85.6191 59.8369C85.7619 59.6307 85.9642 59.4729 86.199 59.3846L88.6656 58.462C88.8523 58.3919 89.0531 58.368 89.251 58.3924C89.4489 58.4169 89.6379 58.4889 89.8018 58.6024C89.9657 58.7159 90.0997 58.8674 90.1922 59.044C90.2848 59.2206 90.3331 59.4171 90.3331 59.6164Z" fill="#D1B9D9"/>
</g>
<defs>
<filter id="filter0_d_76_616" x="0" y="0" width="159" height="160.096" filterUnits="userSpaceOnUse" color-interpolation-filters="sRGB">
<feFlood flood-opacity="0" result="BackgroundImageFix"/>
<feColorMatrix in="SourceAlpha" type="matrix" values="0 0 0 0 0 0 0 0 0 0 0 0 0 0 0 0 0 0 127 0" result="hardAlpha"/>
<feOffset dx="2" dy="6"/>
<feGaussianBlur stdDeviation="2"/>
<feComposite in2="hardAlpha" operator="out"/>
<feColorMatrix type="matrix" values="0 0 0 0 0 0 0 0 0 0 0 0 0 0 0 0 0 0 0.25 0"/>
<feBlend mode="normal" in2="BackgroundImageFix" result="effect1_dropShadow_76_616"/>
<feBlend mode="normal" in="SourceGraphic" in2="effect1_dropShadow_76_616" result="shape"/>
</filter>
</defs>
</svg>
