<svg width="28" height="28" viewBox="0 0 28 28" fill="none" xmlns="http://www.w3.org/2000/svg">
<path d="M0 4C0 2.93913 0.421427 1.92172 1.17157 1.17157C1.92172 0.421427 2.93913 0 4 0H24C25.0609 0 26.0783 0.421427 26.8284 1.17157C27.5786 1.92172 28 2.93913 28 4V24C28 25.0609 27.5786 26.0783 26.8284 26.8284C26.0783 27.5786 25.0609 28 24 28H4C2.93913 28 1.92172 27.5786 1.17157 26.8284C0.421427 26.0783 0 25.0609 0 24V4Z" fill="#8D65C5"/>
<path d="M12.3807 5.78799C11.6207 5.78799 11.0057 6.40299 11.0057 7.16299V20.752C11.0057 21.511 11.6217 22.127 12.3807 22.127H15.6857C20.2367 22.127 23.9637 18.49 23.9637 13.957C23.9637 9.42499 20.2367 5.78699 15.6857 5.78699L12.3807 5.78799ZM13.8807 19.377C13.8476 19.377 13.8158 19.3638 13.7923 19.3404C13.7689 19.3169 13.7557 19.2851 13.7557 19.252V8.66199C13.7557 8.59399 13.8117 8.53799 13.8807 8.53799H15.6857C18.7597 8.53799 21.2137 10.985 21.2137 13.958C21.2137 16.93 18.7597 19.377 15.6857 19.377H13.8807ZM8.76172 7.26299C8.76152 7.08242 8.72576 6.90366 8.65648 6.73691C8.5872 6.57016 8.48575 6.4187 8.35793 6.29115C8.23011 6.16361 8.07842 6.0625 7.91152 5.99358C7.74463 5.92466 7.56579 5.88929 7.38522 5.88949C7.20465 5.88968 7.02589 5.92544 6.85914 5.99473C6.6924 6.06401 6.54093 6.16546 6.41339 6.29328C6.28585 6.4211 6.18473 6.57279 6.11581 6.73968C6.04689 6.90658 6.01152 7.08542 6.01172 7.26599L6.02572 20.651C6.02612 21.0157 6.17136 21.3652 6.42951 21.6228C6.68765 21.8804 7.03755 22.0249 7.40222 22.0245C7.76689 22.0241 8.11647 21.8788 8.37405 21.6207C8.63163 21.3626 8.77612 21.0127 8.77572 20.648L8.76172 7.26299Z" fill="white"/>
</svg>
