<svg width="24" height="24" viewBox="0 0 24 24" fill="none" xmlns="http://www.w3.org/2000/svg">
<path d="M4 22C3.45 22 2.97933 21.8043 2.588 21.413C2.19667 21.0217 2.00067 20.5507 2 20V4C2 3.45 2.196 2.97933 2.588 2.588C2.98 2.19667 3.45067 2.00067 4 2H20C20.55 2 21.021 2.196 21.413 2.588C21.805 2.98 22.0007 3.45067 22 4V20C22 20.55 21.8043 21.021 21.413 21.413C21.0217 21.805 20.5507 22.0007 20 22H4ZM9 14C8.71667 14 8.47933 13.904 8.288 13.712C8.09667 13.52 8.00067 13.2827 8 13C7.99933 12.7173 8.09533 12.48 8.288 12.288C8.48067 12.096 8.718 12 9 12C9.282 12 9.51967 12.096 9.713 12.288C9.90633 12.48 10.002 12.7173 10 13C9.998 13.2827 9.902 13.5203 9.712 13.713C9.522 13.9057 9.28467 14.0013 9 14ZM15 14C14.7167 14 14.4793 13.904 14.288 13.712C14.0967 13.52 14.0007 13.2827 14 13C13.9993 12.7173 14.0953 12.48 14.288 12.288C14.4807 12.096 14.718 12 15 12C15.282 12 15.5197 12.096 15.713 12.288C15.9063 12.48 16.002 12.7173 16 13C15.998 13.2827 15.902 13.5203 15.712 13.713C15.522 13.9057 15.2847 14.0013 15 14ZM5 11.1V17.7C5 17.9333 5.075 18.125 5.225 18.275C5.375 18.425 5.56667 18.5 5.8 18.5H6.2C6.43333 18.5 6.625 18.425 6.775 18.275C6.925 18.125 7 17.9333 7 17.7V16.5H17V17.7C17 17.9333 17.075 18.125 17.225 18.275C17.375 18.425 17.5667 18.5 17.8 18.5H18.2C18.4333 18.5 18.625 18.425 18.775 18.275C18.925 18.125 19 17.9333 19 17.7V11.1L17.35 6.3C17.2667 6.06667 17.129 5.875 16.937 5.725C16.745 5.575 16.5327 5.5 16.3 5.5H7.7C7.46667 5.5 7.254 5.575 7.062 5.725C6.87 5.875 6.73267 6.06667 6.65 6.3L5 11.1ZM7.65 9.5L8.35 7.5H15.65L16.35 9.5H7.65Z" fill="#14FF00"/>
</svg>
