<svg width="27" height="27" viewBox="0 0 27 27" fill="none" xmlns="http://www.w3.org/2000/svg">
<path d="M16.7094 1.65749L16.71 1.65846C16.9305 2.00006 17.0617 2.39777 17.0287 2.7963L17.0287 2.7963L17.0283 2.80143C16.9903 3.33128 17.163 3.83342 17.4306 4.26873L17.4305 4.26879L17.4361 4.27746C18.3127 5.63559 20.2193 6.12492 21.7022 5.37301L21.7023 5.37319L21.7145 5.36658C22.9406 4.6988 24.4786 5.10965 25.1712 6.22636C25.1715 6.22676 25.1717 6.22717 25.172 6.22757L26.1434 7.81809L26.1434 7.81812L26.1469 7.82368C26.8384 8.92095 26.4692 10.3331 25.2495 10.9794L25.2495 10.9793L25.2407 10.9842C23.7902 11.7932 23.2464 13.614 24.1442 15.0214C24.3952 15.4152 24.7145 15.8107 25.2348 16.055C25.6492 16.2657 25.9824 16.6036 26.225 16.9583C26.6465 17.6194 26.6311 18.4489 26.1853 19.2251L25.1734 20.8376L25.1724 20.8392C24.724 21.5601 23.8757 22.0218 23.0004 22.0218C22.5682 22.0218 22.0862 21.9055 21.7003 21.6824C21.2259 21.3954 20.6979 21.3063 20.183 21.3063C18.5148 21.3063 17.0799 22.6055 17.0274 24.2172L17.0271 24.2249V24.2325C17.0271 25.4885 15.9401 26.5308 14.4902 26.5308H12.5151C11.0491 26.5308 9.96364 25.4871 9.96364 24.2325H9.96375L9.96353 24.2223C9.92839 22.6054 8.48909 21.3063 6.82226 21.3063C6.29831 21.3063 5.76633 21.3935 5.3018 21.6842C4.91715 21.9057 4.42256 22.0218 4.00489 22.0218C3.11402 22.0218 2.26653 21.5594 1.81869 20.8398C1.81857 20.8396 1.81845 20.8394 1.81833 20.8392L0.817984 19.222C0.817815 19.2217 0.817647 19.2214 0.817479 19.2211C0.364438 18.4807 0.353763 17.6226 0.783637 16.953L0.789955 16.9432L0.795775 16.933C0.975924 16.619 1.33616 16.2752 1.75866 16.0537C2.27629 15.8099 2.59414 15.4158 2.854 15.0321L2.85879 15.0251L2.86333 15.0178C3.74266 13.6119 3.20058 11.7932 1.7501 10.9842L1.75013 10.9841L1.74295 10.9803C0.536807 10.3347 0.164817 8.92002 0.845776 7.82057L0.847304 7.81809L1.81853 6.22801C2.52631 5.10817 4.05238 4.69887 5.29255 5.36752L5.2925 5.36761L5.3011 5.37202C6.772 6.12641 8.67892 5.63422 9.55464 4.27746L9.55473 4.27752L9.56014 4.26873C9.827 3.8346 9.9995 3.33401 9.96275 2.80575C9.94075 2.39237 10.0663 1.99485 10.2888 1.6682L10.289 1.6683L10.2959 1.65749C10.7441 0.959328 11.5675 0.494274 12.4777 0.469231H14.5192C15.43 0.469231 16.2561 0.951419 16.7094 1.65749ZM13.5172 9.22377C11.0131 9.22377 8.92352 11.1011 8.92352 13.5135C8.92352 15.928 11.0153 17.7897 13.5172 17.7897C16.0257 17.7897 18.0672 15.9217 18.0672 13.5135C18.0672 11.1074 16.028 9.22377 13.5172 9.22377Z" fill="black" stroke="black" stroke-width="0.938461"/>
</svg>
