<svg xmlns="http://www.w3.org/2000/svg" width="84" height="84" viewBox="0 0 84 84" fill="none">
<path d="M25.6826 16.2003C25.6826 11.9037 27.342 7.78309 30.2957 4.74495C33.2494 1.70681 37.2555 0 41.4326 0C45.6098 0 49.6158 1.70681 52.5695 4.74495C55.5232 7.78309 57.1826 11.9037 57.1826 16.2003V45.1124C59.8557 48.2301 61.5975 52.0749 62.1988 56.1856C62.8002 60.2962 62.2356 64.4981 60.5728 68.2868C58.91 72.0756 56.2197 75.2904 52.8246 77.5455C49.4296 79.8005 45.474 81 41.4326 81C37.3912 81 33.4357 79.8005 30.0406 77.5455C26.6456 75.2904 23.9552 72.0756 22.2924 68.2868C20.6297 64.4981 20.0651 60.2962 20.6664 56.1856C21.2678 52.0749 23.0095 48.2301 25.6826 45.1124V16.2003ZM41.4326 8.10013C39.344 8.10013 37.341 8.95354 35.8642 10.4726C34.3873 11.9917 33.5576 14.052 33.5576 16.2003V48.4658L32.3501 49.6538C30.4598 51.5187 29.1552 53.9226 28.6041 56.5564C28.053 59.1902 28.2806 61.9333 29.2576 64.4329C30.2346 66.9326 31.9164 69.0743 34.0866 70.5828C36.2567 72.0912 38.816 72.8972 41.4352 72.8972C44.0544 72.8972 46.6138 72.0912 48.7839 70.5828C50.9541 69.0743 52.6359 66.9326 53.6129 64.4329C54.5899 61.9333 54.8175 59.1902 54.2664 56.5564C53.7153 53.9226 52.4107 51.5187 50.5204 49.6538L49.3076 48.4712V16.2003C49.3076 14.052 48.4779 11.9917 47.0011 10.4726C45.5242 8.95354 43.5212 8.10013 41.4326 8.10013ZM44.0576 29.7005C44.0576 28.9844 43.7811 28.2976 43.2888 27.7913C42.7965 27.2849 42.1288 27.0004 41.4326 27.0004C40.7364 27.0004 40.0687 27.2849 39.5765 27.7913C39.0842 28.2976 38.8076 28.9844 38.8076 29.7005V51.7599C37.0562 52.3968 35.58 53.6501 34.6401 55.2982C33.7001 56.9464 33.3569 58.8832 33.671 60.7665C33.9852 62.6498 34.9365 64.3582 36.3568 65.5898C37.7771 66.8214 39.5749 67.4969 41.4326 67.4969C43.2903 67.4969 45.0882 66.8214 46.5085 65.5898C47.9288 64.3582 48.8801 62.6498 49.1942 60.7665C49.5083 58.8832 49.1651 56.9464 48.2251 55.2982C47.2852 53.6501 45.809 52.3968 44.0576 51.7599V29.7005Z" fill="#9548b3"/>
</svg>