<svg width="159" height="161" viewBox="0 0 159 161" fill="none" xmlns="http://www.w3.org/2000/svg">
<g filter="url(#filter0_d_76_611)">
<rect x="2" y="1.09558" width="151" height="149" rx="30" fill="#A114E3"/>
<circle cx="78" cy="74" r="50" fill="#723B9D"/>
<path d="M61.6826 48.2003C61.6826 43.9037 63.342 39.7831 66.2957 36.7449C69.2494 33.7068 73.2555 32 77.4326 32C81.6098 32 85.6158 33.7068 88.5695 36.7449C91.5232 39.7831 93.1826 43.9037 93.1826 48.2003V77.1124C95.8557 80.2301 97.5975 84.0749 98.1988 88.1856C98.8002 92.2962 98.2356 96.4981 96.5728 100.287C94.91 104.076 92.2197 107.29 88.8246 109.545C85.4296 111.801 81.474 113 77.4326 113C73.3912 113 69.4357 111.801 66.0406 109.545C62.6456 107.29 59.9552 104.076 58.2924 100.287C56.6297 96.4981 56.0651 92.2962 56.6664 88.1856C57.2678 84.0749 59.0095 80.2301 61.6826 77.1124V48.2003ZM77.4326 40.1001C75.344 40.1001 73.341 40.9535 71.8642 42.4726C70.3873 43.9917 69.5576 46.052 69.5576 48.2003V80.4658L68.3501 81.6538C66.4598 83.5187 65.1552 85.9226 64.6041 88.5564C64.053 91.1902 64.2806 93.9333 65.2576 96.4329C66.2346 98.9326 67.9164 101.074 70.0866 102.583C72.2567 104.091 74.816 104.897 77.4352 104.897C80.0544 104.897 82.6138 104.091 84.7839 102.583C86.9541 101.074 88.6359 98.9326 89.6129 96.4329C90.5899 93.9333 90.8175 91.1902 90.2664 88.5564C89.7153 85.9226 88.4107 83.5187 86.5204 81.6538L85.3076 80.4712V48.2003C85.3076 46.052 84.4779 43.9917 83.0011 42.4726C81.5242 40.9535 79.5212 40.1001 77.4326 40.1001ZM80.0576 61.7005C80.0576 60.9844 79.7811 60.2976 79.2888 59.7913C78.7965 59.2849 78.1288 59.0004 77.4326 59.0004C76.7364 59.0004 76.0687 59.2849 75.5765 59.7913C75.0842 60.2976 74.8076 60.9844 74.8076 61.7005V83.7599C73.0562 84.3968 71.58 85.6501 70.6401 87.2982C69.7001 88.9464 69.3569 90.8832 69.671 92.7665C69.9852 94.6498 70.9365 96.3582 72.3568 97.5898C73.7771 98.8214 75.5749 99.4969 77.4326 99.4969C79.2903 99.4969 81.0882 98.8214 82.5085 97.5898C83.9288 96.3582 84.8801 94.6498 85.1942 92.7665C85.5083 90.8832 85.1651 88.9464 84.2251 87.2982C83.2852 85.6501 81.809 84.3968 80.0576 83.7599V61.7005Z" fill="#D1B9D9"/>
</g>
<defs>
<filter id="filter0_d_76_611" x="0" y="0" width="159" height="160.096" filterUnits="userSpaceOnUse" color-interpolation-filters="sRGB">
<feFlood flood-opacity="0" result="BackgroundImageFix"/>
<feColorMatrix in="SourceAlpha" type="matrix" values="0 0 0 0 0 0 0 0 0 0 0 0 0 0 0 0 0 0 127 0" result="hardAlpha"/>
<feOffset dx="2" dy="6"/>
<feGaussianBlur stdDeviation="2"/>
<feComposite in2="hardAlpha" operator="out"/>
<feColorMatrix type="matrix" values="0 0 0 0 0 0 0 0 0 0 0 0 0 0 0 0 0 0 0.25 0"/>
<feBlend mode="normal" in2="BackgroundImageFix" result="effect1_dropShadow_76_611"/>
<feBlend mode="normal" in="SourceGraphic" in2="effect1_dropShadow_76_611" result="shape"/>
</filter>
</defs>
</svg>
