<svg width="24" height="24" viewBox="0 0 24 24" fill="none" xmlns="http://www.w3.org/2000/svg">
<path d="M11.4149 2.311C11.1059 2.482 10.8149 2.642 10.7599 2.667C10.3858 2.86446 10.0141 3.06647 9.64494 3.273C9.60794 3.296 8.64994 3.817 8.55194 3.867C8.50194 3.892 7.69394 4.334 6.89194 4.773C6.64794 4.907 6.43094 5.023 6.40994 5.031C6.36649 5.04934 6.32438 5.07072 6.28394 5.095C6.23594 5.123 5.93094 5.295 5.60594 5.47L4.72094 5.956C4.55894 6.046 4.37394 6.145 4.31094 6.175C4.15387 6.25379 3.99914 6.33715 3.84694 6.425C3.79794 6.454 3.51794 6.608 3.22394 6.769L2.42394 7.207C2.27894 7.287 2.15494 7.353 2.14694 7.354C2.11714 7.36395 2.08861 7.37737 2.06194 7.394L1.99194 7.433V19.7H3.16294V15.836H4.28894V19.7H8.55194V18.53H5.46994V14.666H3.16294V8.143L3.46294 7.98L4.14394 7.606L4.66294 7.324C4.86594 7.216 5.99994 6.6 6.14194 6.518C6.36052 6.39448 6.58088 6.27414 6.80294 6.157C6.92294 6.096 8.35194 5.318 8.44794 5.257C8.57794 5.181 8.93194 4.989 9.02194 4.947C9.09294 4.913 9.40394 4.747 9.57494 4.647C9.6073 4.62814 9.64068 4.61111 9.67494 4.596C9.67494 4.596 9.67994 4.884 9.67494 5.236V5.877L9.49994 5.974C9.40594 6.025 9.23194 6.118 9.11194 6.179C8.99194 6.24 8.80394 6.341 8.69594 6.401C8.58794 6.461 8.25394 6.645 7.95294 6.809C7.65194 6.973 7.37694 7.125 7.34094 7.147C7.24094 7.208 6.96694 7.354 6.95494 7.354C6.94294 7.354 6.19794 7.754 6.18794 7.769C6.17794 7.784 5.93894 7.908 5.64094 8.069C5.34294 8.23 5.06094 8.385 5.01294 8.414C4.94829 8.45687 4.87964 8.49338 4.80794 8.523C4.80794 8.523 4.68294 8.586 4.54194 8.662L4.28594 8.802V13.54H6.96694V17.3H8.13594V13.42C8.13594 11.226 8.13594 9.54 8.12694 9.54C8.08294 9.56055 8.0405 9.58428 7.99994 9.611C7.95685 9.63841 7.91172 9.66248 7.86494 9.683C7.85794 9.683 7.73594 9.752 7.59494 9.835L7.15494 10.093L6.97194 10.2V12.36H5.46994V9.506L5.75994 9.346C6.57794 8.896 7.29294 8.506 7.35994 8.472C7.72869 8.27583 8.09538 8.07582 8.45994 7.872C8.81338 7.6746 9.16907 7.48125 9.52694 7.292C9.71594 7.194 10.7269 6.644 10.7919 6.601L10.8549 6.562V3.946L10.9719 3.882C11.2943 3.71761 11.613 3.54623 11.9279 3.368L11.9899 3.33L12.0639 3.373C12.2079 3.457 12.8119 3.782 12.8799 3.812C12.9169 3.829 13.0019 3.874 13.0679 3.912L13.7679 4.296C14.0859 4.47 14.3519 4.616 14.3579 4.621C14.3789 4.638 14.9699 4.957 15.0249 4.982C15.0799 5.007 15.3989 5.182 15.5989 5.293L15.6809 5.34V6.62L15.5469 6.546C15.1879 6.346 14.9169 6.2 14.8779 6.183C14.7736 6.13125 14.6706 6.0769 14.5689 6.02C14.4229 5.94 14.0329 5.72 13.7009 5.542C13.4758 5.42135 13.2521 5.29801 13.0299 5.172C12.9652 5.13496 12.8984 5.10158 12.8299 5.072C12.7539 5.041 12.5399 4.92 12.3459 4.815C12.1519 4.71 11.9999 4.621 11.9999 4.624C11.9999 4.627 11.9919 5.837 11.9879 7.314C11.9885 8.20936 11.9832 9.10471 11.9719 10C11.9597 9.99554 11.9485 9.98875 11.9389 9.98C11.7671 9.87522 11.5923 9.77519 11.4149 9.68C11.3012 9.61944 11.1892 9.55575 11.0789 9.489C10.6399 9.232 9.67894 8.673 9.66494 8.669C9.65094 8.665 9.65594 9.563 9.65594 10.669V12.669L9.69094 12.692C9.75294 12.733 10.4359 13.124 10.4639 13.135C10.4919 13.146 10.8119 13.327 10.8359 13.347C10.8449 13.354 11.1159 13.513 11.4359 13.699C11.7559 13.885 12.0729 14.069 12.1359 14.107L12.3359 14.226C12.4449 14.286 12.4459 14.278 12.3249 14.339C12.2497 14.3776 12.1756 14.4187 12.1029 14.462C12.0369 14.502 11.7269 14.682 11.4149 14.862C11.1029 15.042 10.8389 15.199 10.8299 15.207C10.8209 15.215 10.8129 15.191 10.8109 14.928V14.628L10.7589 14.595C10.6143 14.5072 10.4673 14.4235 10.3179 14.344C10.1987 14.2807 10.0813 14.214 9.96594 14.144C9.8647 14.0823 9.76166 14.0236 9.65694 13.968C9.65394 13.968 9.65694 14.701 9.65694 15.596V17.225C9.65694 17.225 9.89094 17.094 10.1679 16.933L10.6899 16.633L11.8899 15.945C11.9073 15.936 11.9237 15.9252 11.9389 15.913C11.9389 15.913 12.1199 15.806 12.3389 15.683C13.0869 15.2559 13.8323 14.8242 14.5749 14.388C14.6412 14.3517 14.7053 14.3116 14.7669 14.268C14.6969 14.218 14.6238 14.1726 14.5479 14.132C14.4279 14.062 14.3159 13.995 14.2979 13.983C14.2799 13.971 13.9979 13.809 13.6809 13.623C13.3639 13.437 13.0809 13.277 13.0659 13.266C12.6957 13.061 12.3287 12.8503 11.9649 12.634C11.6056 12.4212 11.2432 12.2135 10.8779 12.011C10.8636 12.0103 10.8497 12.0066 10.8369 12L10.8139 11.981V10.688L10.8739 10.723L10.9829 10.785C11.0829 10.839 11.9419 11.334 12.0049 11.375C12.1169 11.446 13.0379 11.975 13.0499 11.975C13.0919 11.9921 13.1319 12.0139 13.1689 12.04C13.2884 12.1202 13.4161 12.1872 13.5499 12.24L13.7999 12.1C14.5459 11.673 14.6909 11.588 14.6909 11.578C14.6238 11.5294 14.5536 11.4849 14.4809 11.445C14.1383 11.2423 13.7929 11.0443 13.4449 10.851C13.4369 10.851 13.3689 10.813 13.2879 10.767L13.1389 10.683V9.469C13.1389 8.801 13.1389 7.877 13.1459 7.417L13.1539 6.579L13.1979 6.606C13.2419 6.632 13.9799 7.033 14.9529 7.56C15.2149 7.701 15.4679 7.84 15.5159 7.868C15.6879 7.968 16.6349 8.48 16.6509 8.48C16.6548 8.47939 16.6587 8.47992 16.6623 8.48151C16.6658 8.48311 16.6688 8.48572 16.6709 8.489C16.7276 8.52695 16.7871 8.56038 16.8489 8.589C16.8489 8.589 16.8549 8.004 16.8549 7.289V5.989L17.0979 6.113C17.2319 6.182 17.4569 6.301 17.5979 6.38L18.4509 6.847C18.7789 7.025 19.0509 7.178 19.0629 7.185C19.0749 7.192 19.1359 7.227 19.2049 7.262C19.3249 7.321 19.7909 7.574 20.4949 7.962L20.8169 8.14V14.264H19.6999V8.8L19.4679 8.676L19.1099 8.487C19.0616 8.46358 19.0142 8.43823 18.9679 8.411C18.9409 8.389 18.0219 7.891 18.0079 7.891C17.9906 8.11191 17.9879 8.33373 17.9999 8.555V9.22L18.2679 9.365L18.5349 9.511V11L18.4049 10.924C18.3601 10.8949 18.3129 10.8695 18.2639 10.848C18.2519 10.848 17.8729 10.63 17.8089 10.586C17.6029 10.4612 17.3952 10.3392 17.1859 10.22C16.8629 10.035 16.5499 9.85 16.4809 9.808C16.4207 9.77141 16.3587 9.73803 16.2949 9.708C16.0206 9.55732 15.7492 9.40129 15.4809 9.24C15.0902 9.00787 14.6969 8.78019 14.3009 8.557C14.2919 8.557 14.2949 8.857 14.2949 9.232V9.906L14.3349 9.933L14.9489 10.292C15.2629 10.475 15.5489 10.641 15.5789 10.661C15.6089 10.681 15.6879 10.726 15.7539 10.761C15.8849 10.83 16.6719 11.284 16.6979 11.306C16.7239 11.328 17.2049 11.606 18.2089 12.18L18.5339 12.367V15.432H20.8339V20.832H19.6999V16.568H18.5299V20.831H10.8579V19.7H17.4049V18.53H14.0929V17.47L14.1669 17.424C14.2069 17.399 14.5009 17.224 14.8199 17.043L15.4429 16.679C15.473 16.66 15.504 16.6427 15.5359 16.627C15.5879 16.602 16.4979 16.076 16.5899 16.018L17.0219 15.764L17.3989 15.545V13.134L17.0259 12.918C16.8199 12.8 16.6449 12.698 16.6379 12.691C16.3706 12.5323 16.1006 12.3783 15.8279 12.229C15.7216 12.2812 15.6184 12.3396 15.5189 12.404C15.4949 12.42 15.2949 12.537 15.0729 12.666C14.9349 12.7398 14.8014 12.8216 14.6729 12.911C14.7888 12.9908 14.9101 13.0623 15.0359 13.125C15.1029 13.16 15.2359 13.238 15.3419 13.298C15.4479 13.358 15.6869 13.498 15.8809 13.612L16.2329 13.817V14.866L15.8749 15.075L15.3289 15.395C15.2289 15.456 15.1289 15.511 15.1109 15.517C14.8573 15.6571 14.6063 15.8018 14.3579 15.951C14.3489 15.958 14.0889 16.111 13.7789 16.29C13.4689 16.469 13.1959 16.629 13.1709 16.646C13.1534 16.6583 13.1347 16.6687 13.1149 16.677C13.0807 16.6921 13.0473 16.7091 13.0149 16.728L12.9269 16.778V18.535H9.67694V20.835H1.99394V22H22.0059V7.431L21.8999 7.38C21.6867 7.27207 21.4763 7.1587 21.2689 7.04C21.2389 7.022 20.9809 6.881 20.6949 6.726C20.4089 6.571 20.1519 6.426 20.1219 6.411C19.9881 6.33316 19.8517 6.25979 19.7129 6.191C19.6869 6.183 19.5129 6.091 19.3129 5.975C18.3069 5.423 17.7779 5.135 17.5839 5.032C17.4659 4.97 17.2009 4.825 16.9929 4.712C16.2779 4.319 15.5449 3.918 15.4519 3.87C15.3589 3.822 14.7109 3.47 13.7929 2.965C13.6214 2.86894 13.4481 2.77625 13.2729 2.687C13.2309 2.66882 13.1901 2.64777 13.1509 2.624C12.7682 2.40997 12.3822 2.20194 11.9929 2C11.9779 2 11.7249 2.141 11.4149 2.311Z" fill="white"/>
</svg>
