<svg width="25" height="25" viewBox="0 0 25 25" fill="none" xmlns="http://www.w3.org/2000/svg">
<path d="M8.05781 20.4203L15.2625 13.1C15.4205 12.9403 15.5091 12.7247 15.5091 12.5C15.5091 12.2753 15.4205 12.0597 15.2625 11.9L8.05938 4.57814C7.90219 4.41704 7.8142 4.20088 7.8142 3.9758C7.8142 3.75072 7.90219 3.53455 8.05938 3.37346C8.13653 3.29432 8.22874 3.23142 8.33058 3.18848C8.43242 3.14554 8.54182 3.12341 8.65235 3.12341C8.76287 3.12341 8.87227 3.14554 8.97411 3.18848C9.07595 3.23142 9.16816 3.29432 9.24531 3.37346L16.4484 10.6922C16.9218 11.1743 17.1869 11.8229 17.1869 12.4985C17.1869 13.174 16.9218 13.8226 16.4484 14.3047L9.24531 21.6235C9.16814 21.7028 9.07583 21.7659 8.97385 21.809C8.87186 21.8521 8.76228 21.8743 8.65156 21.8743C8.54085 21.8743 8.43127 21.8521 8.32928 21.809C8.2273 21.7659 8.13499 21.7028 8.05781 21.6235C7.90062 21.4624 7.81264 21.2462 7.81264 21.0211C7.81264 20.796 7.90062 20.5799 8.05781 20.4188" fill="white"/>
</svg>
