<svg width="25" height="25" viewBox="0 0 25 25" fill="none" xmlns="http://www.w3.org/2000/svg">
<g clip-path="url(#clip0_37_155)">
<path d="M14.0625 7.42213C14.0625 7.11133 14.186 6.81326 14.4058 6.59349C14.6255 6.37372 14.9236 6.25025 15.2344 6.25025H21.4844C21.716 6.25046 21.9424 6.3193 22.1349 6.44808C22.3274 6.57686 22.4775 6.75981 22.5661 6.97381C22.6547 7.18782 22.6779 7.42328 22.6328 7.65047C22.5877 7.87765 22.4762 8.08637 22.3125 8.25025L19.3594 11.2065C19.8469 11.3253 20.3032 11.4878 20.7141 11.7049C21.8735 12.3159 22.6578 13.3659 22.6578 14.8378C22.6578 15.8581 22.2969 16.7253 21.675 17.3799C21.0719 18.0174 20.2782 18.4003 19.475 18.594C17.8969 18.9737 15.9985 18.6924 14.5938 17.7706C14.3536 17.5921 14.1906 17.3285 14.1383 17.0339C14.086 16.7392 14.1482 16.4357 14.3123 16.1854C14.4764 15.9351 14.7299 15.757 15.0209 15.6874C15.312 15.6179 15.6187 15.6621 15.8782 15.8112C16.7125 16.3581 17.9407 16.5518 18.9266 16.3143C19.4047 16.2003 19.7547 16.0003 19.9735 15.769C20.175 15.5565 20.3141 15.269 20.3141 14.8378C20.3141 14.3565 20.1219 14.0424 19.6203 13.7784C19.0375 13.4706 18.0891 13.2815 16.7985 13.2815C16.5668 13.2813 16.3405 13.2125 16.1479 13.0837C15.9554 12.9549 15.8054 12.772 15.7168 12.5579C15.6282 12.3439 15.605 12.1085 15.6501 11.8813C15.6952 11.6541 15.8067 11.4454 15.9703 11.2815L18.6578 8.594H15.2344C14.9236 8.594 14.6255 8.47054 14.4058 8.25077C14.186 8.031 14.0625 7.73293 14.0625 7.42213ZM8.45784 16.4268C7.91097 16.3487 7.25472 16.6034 6.92191 17.3206C6.85915 17.4633 6.76852 17.5921 6.65535 17.6994C6.54217 17.8067 6.40872 17.8903 6.26282 17.9454C6.11691 18.0004 5.96148 18.0258 5.80564 18.02C5.6498 18.0142 5.49669 17.9774 5.35526 17.9117C5.21384 17.846 5.08696 17.7527 4.98205 17.6373C4.87714 17.5219 4.79632 17.3867 4.74432 17.2397C4.69232 17.0927 4.67018 16.9368 4.67921 16.7811C4.68824 16.6254 4.72826 16.4731 4.79691 16.3331C5.59066 14.6237 7.27972 13.8878 8.79378 14.1065C10.3563 14.3331 11.7188 15.5831 11.7188 17.5784C11.7188 19.8174 10.0188 21.0034 8.92191 21.7674C8.44066 22.1049 8.02972 22.3878 7.71566 22.6628H10.9375C11.2483 22.6628 11.5464 22.7862 11.7662 23.006C11.9859 23.2258 12.1094 23.5238 12.1094 23.8346C12.1094 24.1454 11.9859 24.4435 11.7662 24.6633C11.5464 24.883 11.2483 25.0065 10.9375 25.0065H5.85941C5.54861 25.0065 5.25054 24.883 5.03077 24.6633C4.811 24.4435 4.68753 24.1454 4.68753 23.8346C4.68753 22.7565 5.15628 21.9424 5.73441 21.319C6.27816 20.7378 6.98441 20.2628 7.53128 19.8815C8.78128 19.0065 9.37503 18.469 9.37503 17.5784C9.37503 16.8393 8.95784 16.5003 8.45784 16.4268ZM8.75628 0.139316C8.9432 0.239392 9.09947 0.388304 9.20843 0.570186C9.3174 0.752068 9.37498 0.960105 9.37503 1.17213V8.62525H10.486C10.7968 8.62525 11.0948 8.74872 11.3146 8.96849C11.5344 9.18826 11.6578 9.48633 11.6578 9.79713C11.6578 10.1079 11.5344 10.406 11.3146 10.6258C11.0948 10.8455 10.7968 10.969 10.486 10.969H5.87347C5.56267 10.969 5.2646 10.8455 5.04483 10.6258C4.82506 10.406 4.70159 10.1079 4.70159 9.79713C4.70159 9.48633 4.82506 9.18826 5.04483 8.96849C5.2646 8.74872 5.56267 8.62525 5.87347 8.62525H7.03128V3.35963L6.50941 3.70807C6.2508 3.8764 5.93623 3.93593 5.63399 3.87376C5.33175 3.81158 5.06623 3.6327 4.89507 3.37596C4.72391 3.11921 4.66091 2.80532 4.71976 2.50242C4.77861 2.19951 4.95456 1.93204 5.20941 1.75807L7.55316 0.195566C7.72969 0.0779385 7.93484 0.0104338 8.14672 0.000252202C8.35861 -0.00992935 8.56929 0.0375941 8.75628 0.137754V0.139316Z" fill="#7D7D7D"/>
</g>
<defs>
<clipPath id="clip0_37_155">
<rect width="25" height="25" fill="white"/>
</clipPath>
</defs>
</svg>
