<svg width="89" height="89" viewBox="0 0 89 89" fill="none" xmlns="http://www.w3.org/2000/svg">
<path d="M44.5 0.3125C56.2193 0.3125 67.4585 4.96796 75.7453 13.2547C84.032 21.5415 88.6875 32.7807 88.6875 44.5C88.6875 56.2193 84.032 67.4585 75.7453 75.7453C67.4585 84.032 56.2193 88.6875 44.5 88.6875C32.7807 88.6875 21.5415 84.032 13.2547 75.7453C4.96796 67.4585 0.3125 56.2193 0.3125 44.5C0.3125 32.7807 4.96796 21.5415 13.2547 13.2547C21.5415 4.96796 32.7807 0.3125 44.5 0.3125ZM38.9955 53.2176L29.1796 43.3953C28.8277 43.0434 28.4099 42.7643 27.9501 42.5738C27.4903 42.3834 26.9976 42.2854 26.4999 42.2854C26.0022 42.2854 25.5095 42.3834 25.0497 42.5738C24.5899 42.7643 24.1721 43.0434 23.8202 43.3953C23.1096 44.106 22.7103 45.0699 22.7103 46.075C22.7103 47.08 23.1096 48.0439 23.8202 48.7546L36.319 61.2534C36.6699 61.607 37.0874 61.8877 37.5473 62.0793C38.0072 62.2708 38.5004 62.3695 38.9987 62.3695C39.4969 62.3695 39.9901 62.2708 40.4501 62.0793C40.91 61.8877 41.3274 61.607 41.6783 61.2534L67.5596 35.3658C67.9162 35.0154 68.1999 34.5978 68.3943 34.1372C68.5887 33.6766 68.69 33.182 68.6923 32.682C68.6946 32.1821 68.5979 31.6866 68.4078 31.2242C68.2177 30.7618 67.9379 30.3416 67.5846 29.9878C67.2312 29.6341 66.8114 29.3538 66.3492 29.1631C65.887 28.9725 65.3916 28.8752 64.8917 28.8769C64.3917 28.8787 63.897 28.9794 63.4362 29.1733C62.9753 29.3671 62.5574 29.6503 62.2066 30.0065L38.9955 53.2176Z" fill="#4BC637"/>
</svg>
